#!OML:ASF I:\Actors\actors\Patient Classification 2\Patient 1\Session 1\actor1.ASF
:FULLY-SPECIFIED
:DEGREES
642
root -0.730821 18.6593 5.87197 1.83009 -3.67624 -1.18072
lowerback 0.401069 0.551613 -0.52865
upperback -2.48334 0.74772 0.9179
thorax -2.79144 0.396682 1.21727
lowerneck -11.007 -2.52429 -4.15643
upperneck 23.3078 -3.82397 4.64644
head 9.30399 -1.66401 1.86805
rclavicle -2.44132e-015 -1.31198e-014
rhumerus -46.4963 4.3606 -90.3397
rradius 53.6683
rwrist 23.0168
rhand -6.8694 -28.7473
rfingers 7.12502
rthumb 18.9964 302.16
lclavicle -2.44132e-015 -1.31198e-014
lhumerus -47.6157 -15.1012 98.5115
lradius 54.0467
lwrist 0.0357508
lhand -8.69897 -27.8945
lfingers 7.12502
lthumb 17.2362 1.36111
rfemur 0 0 0
rtibia 0
rfoot 0 0
rtoes 0
lfemur -2.28831 -7.46581 -13.6456
ltibia 20.351
lfoot -25.6438 17.4346
ltoes -54.2335
643
root -0.728566 18.6582 5.88979 1.96628 -3.86331 -1.11097
lowerback 0.2592 0.612929 -0.630819
upperback -2.65367 0.828503 0.913218
thorax -2.89071 0.440539 1.26807
lowerneck -11.1407 -2.58182 -4.05481
upperneck 23.648 -3.89348 4.46867
head 9.44655 -1.70309 1.78253
rclavicle -6.28657e-015 -9.0447e-015
rhumerus -47.3458 2.07096 -88.9929
rradius 51.8925
rwrist 23.5865
rhand -10.0614 -28.4456
rfingers 7.12502
rthumb 15.9246 302.189
lclavicle -6.28657e-015 -9.0447e-015
lhumerus -48.3328 -12.514 97.7141
lradius 52.4117
lwrist -0.0459029
lhand -9.9064 -27.9437
lfingers 7.12502
lthumb 16.0738 1.40958
rfemur 0 0 0
rtibia 0
rfoot 0 0
rtoes 0
lfemur -2.25645 -7.57539 -13.7701
ltibia 20.2138
lfoot -25.8783 17.6068
ltoes -54
644
root -0.726227 18.6574 5.9066 2.09935 -4.0737 -1.10127
lowerback 0.115426 0.695126 -0.634631
upperback -2.80323 0.938846 0.905328
thorax -2.96695 0.496644 1.25984
lowerneck -11.0918 -2.57783 -4.02455
upperneck 23.7837 -3.90166 4.46706
head 9.48469 -1.70446 1.77737
rclavicle -1.49958e-014 2.28602e-015
rhumerus -48.1094 -0.171718 -87.5111
rradius 50.0359
rwrist 24.41
rhand -10.6528 -27.7403
rfingers 7.12502
rthumb 15.3549 302.85
lclavicle -1.49958e-014 2.28602e-015
lhumerus -48.8298 -9.99421 96.7577
lradius 50.5637
lwrist -0.200836
lhand -11.1784 -27.6878
lfingers 7.12502
lthumb 14.8487 1.7601
rfemur 0 0 0
rtibia 0
rfoot 0 0
rtoes 0
lfemur -2.23646 -7.7808 -13.8487
ltibia 20.1309
lfoot -26.1945 17.8553
ltoes -53.7628
645
root -0.725255 18.6564 5.92274 2.20777 -4.20266 -1.14759
lowerback -0.027507 0.752794 -0.594863
upperback -2.8919 1.01735 0.915584
thorax -2.97953 0.535437 1.24726
lowerneck -11.3374 -2.62661 -3.90127
upperneck 24.096 -3.95891 4.29352
head 9.63855 -1.73383 1.68908
rclavicle 9.62863e-015 7.95139e-016
rhumerus -48.7443 -2.11462 -86.0927
rradius 47.9933
rwrist 24.5444
rhand -10.3941 -27.3164
rfingers 7.12502
rthumb 15.6041 303.293
lclavicle 9.62863e-015 7.95139e-016
lhumerus -49.1601 -7.72771 95.8011
lradius 48.616
lwrist 0.255194
lhand -12.3733 -27.1108
lfingers 7.12502
lthumb 13.6973 2.4184
rfemur 0 0 0
rtibia 0
rfoot 0 0
rtoes 0
lfemur -2.22231 -7.9612 -13.8465
ltibia 20.079
lfoot -26.3934 18.1108
ltoes -53.7661
646
root -0.724101 18.6552 5.93763 2.30108 -4.30213 -1.19766
lowerback -0.122752 0.788806 -0.59697
upperback -2.9674 1.06698 0.960554
thorax -3.0061 0.561375 1.29417
lowerneck -11.6251 -2.66713 -3.79748
upperneck 24.4035 -3.99168 4.09284
head 9.79819 -1.75615 1.59642
rclavicle 1.02623e-014 -9.93923e-016
rhumerus -49.3192 -3.83954 -84.5766
rradius 45.9454
rwrist 24.9179
rhand -9.11359 -27.8346
rfingers 7.12502
rthumb 16.8371 302.875
lclavicle 1.02623e-014 -9.93923e-016
lhumerus -49.4018 -5.54681 94.7439
lradius 46.4622
lwrist 0.492937
lhand -13.34 -26.8545
lfingers 7.12502
lthumb 12.7654 2.73523
rfemur 0 0 0
rtibia 0
rfoot 0 0
rtoes 0
lfemur -2.22707 -8.00866 -13.8171
ltibia 20.0614
lfoot -26.5239 18.2181
ltoes -53.7407
647
root -0.72307 18.6538 5.95312 2.3622 -4.38276 -1.2431
lowerback -0.186669 0.818394 -0.610842
upperback -3.06106 1.10801 1.008
thorax -3.06928 0.583641 1.34992
lowerneck -11.607 -2.6535 -3.7676
upperneck 24.5102 -3.97602 4.06091
head 9.83074 -1.7494 1.58293
rclavicle 5.18704e-015 -5.96354e-015
rhumerus -49.9798 -5.47665 -82.8991
rradius 44.1913
rwrist 26.3967
rhand -8.01523 -28.6278
rfingers 7.12502
rthumb 17.8942 302.175
lclavicle 5.18704e-015 -5.96354e-015
lhumerus -49.5384 -3.28478 93.428
lradius 44.025
lwrist -0.0845462
lhand -13.8034 -26.9062
lfingers 7.12502
lthumb 12.3187 2.71088
rfemur 0 0 0
rtibia 0
rfoot 0 0
rtoes 0
lfemur -2.21062 -8.0269 -13.7884
ltibia 20.0604
lfoot -26.6783 18.2209
ltoes -53.5975
648
root -0.720777 18.6524 5.96905 2.39041 -4.45034 -1.27189
lowerback -0.276369 0.854661 -0.593496
upperback -3.13502 1.15762 1.02632
thorax -3.09662 0.608694 1.35858
lowerneck -11.529 -2.65492 -3.67942
upperneck 24.6309 -3.98407 3.97876
head 9.85557 -1.7546 1.53977
rclavicle -1.26477e-014 -6.65929e-015
rhumerus -50.6912 -6.90833 -81.266
rradius 42.6814
rwrist 28.0624
rhand -7.89155 -28.8399
rfingers 7.12502
rthumb 18.0132 301.974
lclavicle -1.26477e-014 -6.65929e-015
lhumerus -49.5452 -0.999321 91.8717
lradius 41.4631
lwrist -1.38382
lhand -13.7024 -26.9671
lfingers 7.12502
lthumb 12.416 2.64418
rfemur 0 0 0
rtibia 0
rfoot 0 0
rtoes 0
lfemur -2.15974 -8.14025 -13.7994
ltibia 20.0648
lfoot -26.8468 18.3004
ltoes -53.4317
649
root -0.718394 18.6511 5.983 2.37592 -4.47815 -1.26694
lowerback -0.332789 0.878517 -0.606767
upperback -3.17629 1.19007 1.04713
thorax -3.10917 0.625831 1.38717
lowerneck -11.319 -2.60633 -3.68377
upperneck 24.5884 -3.92743 4.01212
head 9.79818 -1.72799 1.56106
rclavicle -2.86374e-015 -6.16232e-015
rhumerus -51.3775 -8.14443 -79.6825
rradius 41.2795
rwrist 29.5456
rhand -7.0171 -28.661
rfingers 7.12502
rthumb 18.8544 302.233
lclavicle -2.86374e-015 -6.16232e-015
lhumerus -49.4626 1.31036 90.1404
lradius 38.8527
lwrist -3.57551
lhand -13.2189 -27.0176
lfingers 7.12502
lthumb 12.8822 2.56482
rfemur 0 0 0
rtibia 0
rfoot 0 0
rtoes 0
lfemur -2.07844 -8.24346 -13.8467
ltibia 20.0523
lfoot -26.8838 18.4314
ltoes -53.4497
650
root -0.71825 18.6495 5.99551 2.35017 -4.45862 -1.25432
lowerback -0.363305 0.886157 -0.643738
upperback -3.19734 1.20046 1.06893
thorax -3.11536 0.6325 1.43038
lowerneck -11.0101 -2.49857 -3.83616
upperneck 24.3838 -3.8151 4.2958
head 9.66959 -1.66365 1.70132
rclavicle 2.49847e-014 -5.66536e-015
rhumerus -52.13 -9.26521 -78.1315
rradius 40.2363
rwrist 31.2029
rhand -5.7011 -28.5742
rfingers 7.12502
rthumb 20.1197 302.448
lclavicle 2.49847e-014 -5.66536e-015
lhumerus -49.3726 3.60929 88.2356
lradius 36.2618
lwrist -6.65816
lhand -12.5242 -27.2913
lfingers 7.12502
lthumb 13.5518 2.24773
rfemur 0 0 0
rtibia 0
rfoot 0 0
rtoes 0
lfemur -2.00838 -8.2519 -13.8735
ltibia 20.0325
lfoot -26.8187 18.4995
ltoes -53.6452
651
root -0.734271 18.6554 6.01064 2.95822 -4.98056 -1.24703
lowerback -1.06351 1.08151 -0.9077
upperback -3.37435 1.46134 1.09263
thorax -2.91954 0.770329 1.6084
lowerneck -10.9062 -2.44929 -3.92214
upperneck 24.3787 -3.7876 4.52387
head 9.65261 -1.63508 1.7998
rclavicle -1.88473e-014 6.95746e-016
rhumerus -53.0904 -10.1696 -76.8001
rradius 39.8202
rwrist 32.6511
rhand -4.85076 -28.6655
rfingers 7.12502
rthumb 20.9368 302.444
lclavicle -1.88473e-014 6.95746e-016
lhumerus -49.3797 5.68273 86.211
lradius 33.9444
lwrist -10.2255
lhand -11.6834 -27.96
lfingers 7.12502
lthumb 14.3621 1.52319
rfemur 0 0 0
rtibia 0
rfoot 0 0
rtoes 0
lfemur -2.50271 -7.92459 -13.8205
ltibia 20.0219
lfoot -26.9812 18.712
ltoes -53.7025
652
root -0.733803 18.6578 6.0228 3.20682 -5.18652 -1.21967
lowerback -1.34526 1.18746 -0.912845
upperback -3.48085 1.60308 1.04662
thorax -2.87486 0.840987 1.56666
lowerneck -10.9245 -2.46031 -3.91342
upperneck 24.5521 -3.828 4.58735
head 9.72081 -1.64477 1.8171
rclavicle -4.46023e-015 -1.54058e-014
rhumerus -54.1622 -10.6939 -75.7747
rradius 39.8331
rwrist 33.5999
rhand -4.20918 -28.8731
rfingers 7.12502
rthumb 21.5531 302.306
lclavicle -4.46023e-015 -1.54058e-014
lhumerus -49.5878 7.33982 84.2991
lradius 32.2181
lwrist -13.7434
lhand -10.5452 -28.6618
lfingers 7.12502
lthumb 15.4585 0.740108
rfemur 0 0 0
rtibia 0
rfoot 0 0
rtoes 0
lfemur -2.699 -8.0227 -13.8892
ltibia 20.0358
lfoot -27.199 18.9801
ltoes -53.6483
653
root -0.726008 18.6589 6.03293 3.22206 -5.2485 -1.24909
lowerback -1.35903 1.235 -0.762989
upperback -3.51993 1.66685 1.02376
thorax -2.90447 0.868776 1.45822
lowerneck -10.9025 -2.46608 -3.90989
upperneck 24.6718 -3.84665 4.60225
head 9.76037 -1.65104 1.82078
rclavicle -4.35463e-015 8.54774e-015
rhumerus -55.1191 -10.7136 -75.129
rradius 40.0628
rwrist 33.8047
rhand -3.60296 -29.2904
rfingers 7.12502
rthumb 22.1352 301.957
lclavicle -4.35463e-015 8.54774e-015
lhumerus -49.978 8.54936 82.7218
lradius 31.2473
lwrist -16.913
lhand -8.98613 -28.8901
lfingers 7.12502
lthumb 16.9598 0.38949
rfemur 0 0 0
rtibia 0
rfoot 0 0
rtoes 0
lfemur -2.67483 -8.28557 -13.9387
ltibia 20.0535
lfoot -27.4534 19.1977
ltoes -53.4653
654
root -0.722119 18.6577 6.04226 3.06191 -4.9985 -1.30914
lowerback -1.21401 1.18601 -0.610323
upperback -3.48127 1.60173 1.01574
thorax -2.93933 0.831888 1.36258
lowerneck -10.8638 -2.46951 -3.8671
upperneck 24.7114 -3.85686 4.57715
head 9.76618 -1.65477 1.80421
rclavicle -2.0891e-014 2.98177e-016
rhumerus -55.8877 -10.3313 -74.8703
rradius 40.3426
rwrist 33.2806
rhand -3.04782 -29.6411
rfingers 7.12502
rthumb 22.6681 301.67
lclavicle -2.0891e-014 2.98177e-016
lhumerus -50.3754 9.1459 81.6163
lradius 30.916
lwrist -19.3972
lhand -7.03936 -28.4727
lfingers 7.12502
lthumb 18.833 0.635587
rfemur 0 0 0
rtibia 0
rfoot 0 0
rtoes 0
lfemur -2.52296 -8.49374 -13.8886
ltibia 20.0778
lfoot -27.5126 19.1152
ltoes -53.3683
655
root -0.723848 18.6509 6.05526 2.55802 -4.23459 -1.29908
lowerback -0.813671 0.969707 -0.572582
upperback -3.33584 1.31235 1.00696
thorax -3.00483 0.685765 1.33083
lowerneck -10.7839 -2.46373 -3.84043
upperneck 24.7231 -3.85024 4.55164
head 9.75357 -1.65294 1.79239
rclavicle -7.00095e-015 -1.30204e-014
rhumerus -56.5489 -9.75256 -74.8243
rradius 40.555
rwrist 32.4464
rhand -2.82369 -29.7939
rfingers 7.12502
rthumb 22.8832 301.544
lclavicle -7.00095e-015 -1.30204e-014
lhumerus -50.7396 8.96243 81.1471
lradius 31.0997
lwrist -20.7042
lhand -4.90213 -27.8054
lfingers 7.12502
lthumb 20.8874 1.09009
rfemur 0 0 0
rtibia 0
rfoot 0 0
rtoes 0
lfemur -2.09988 -8.65442 -13.8335
ltibia 20.0976
lfoot -27.1919 18.646
ltoes -53.5523
656
root -0.727537 18.6514 6.0645 2.61971 -4.20164 -1.29308
lowerback -0.886188 0.974197 -0.601067
upperback -3.3802 1.31848 1.01166
thorax -3.0108 0.689934 1.35241
lowerneck -10.6893 -2.44818 -3.89238
upperneck 24.7788 -3.82627 4.56741
head 9.75544 -1.64585 1.811
rclavicle 1.59525e-014 -8.94531e-015
rhumerus -57.2464 -9.1842 -74.8362
rradius 40.9305
rwrist 31.5444
rhand -2.7271 -29.7075
rfingers 7.12502
rthumb 22.9758 301.642
lclavicle 1.59525e-014 -8.94531e-015
lhumerus -51.1 8.38557 81.0718
lradius 31.5545
lwrist -21.1333
lhand -2.9442 -27.4295
lfingers 7.12502
lthumb 22.7675 1.24705
rfemur 0 0 0
rtibia 0
rfoot 0 0
rtoes 0
lfemur -2.15453 -8.65107 -13.8228
ltibia 20.1065
lfoot -27.1939 18.6453
ltoes -53.604
